<svg width="32" height="32" fill="none" xmlns="http://www.w3.org/2000/svg"><g clip-path="url('#a')"><path d="M32 16c0-8.837-7.163-16-16-16S0 7.163 0 16s7.163 16 16 16 16-7.163 16-16Z" fill="#01383A"/><g filter="url('#b')"><path d="M22 16H10v8h12v-8Z" fill="#86E543"/></g><g filter="url('#c')"><path d="M9.65 23.111c-.856 0-1.564-.304-2.124-.911a3.135 3.135 0 0 1-.773-2.889l1.83-7.466a3.336 3.336 0 0 1 1.165-1.8 3.092 3.092 0 0 1 1.993-.712h8.495c.74 0 1.405.237 1.994.711a3.336 3.336 0 0 1 1.165 1.8l1.83 7.467c.028.134.054.263.075.389a2.958 2.958 0 0 1-.828 2.522c-.573.593-1.288.89-2.145.89a2.925 2.925 0 0 1-1.579-.457 2.86 2.86 0 0 1-1.1-1.255l-.631-1.289a.81.81 0 0 0-.371-.411 1.194 1.194 0 0 0-.588-.145H13.92c-.218 0-.414.049-.588.145a.81.81 0 0 0-.371.411l-.632 1.289a2.861 2.861 0 0 1-1.1 1.255 2.925 2.925 0 0 1-1.579.456ZM9.716 22c.32 0 .628-.085.926-.256.297-.17.54-.44.73-.81l.609-1.268c.174-.385.435-.685.784-.9a2.158 2.158 0 0 1 1.155-.321h4.138c.407 0 .784.11 1.133.333.348.222.624.518.827.888l.61 1.267c.19.37.433.64.73.811.298.17.606.256.926.256.493 0 .936-.174 1.328-.522.392-.349.596-.804.61-1.367a3.01 3.01 0 0 0-.01-.245 1.55 1.55 0 0 0-.055-.288l-1.83-7.445a2.141 2.141 0 0 0-.75-1.222 2.07 2.07 0 0 0-1.34-.466H11.74a2.07 2.07 0 0 0-1.34.466 2.142 2.142 0 0 0-.75 1.222l-1.83 7.445a7.919 7.919 0 0 0-.066.51c0 .564.204 1.023.61 1.378.407.356.857.534 1.35.534Zm7.58-6.867a.64.64 0 0 1-.469-.211.664.664 0 0 1 0-.966.657.657 0 0 1 .469-.2c.189 0 .348.066.48.2.13.133.195.296.195.489a.682.682 0 0 1-.196.477.63.63 0 0 1-.48.211Zm1.742-1.777a.639.639 0 0 1-.468-.212.666.666 0 0 1 0-.966.655.655 0 0 1 .468-.2c.189 0 .349.066.48.2.13.133.195.296.195.488a.684.684 0 0 1-.196.478.63.63 0 0 1-.479.211Zm0 3.555a.639.639 0 0 1-.468-.211.666.666 0 0 1 0-.967.655.655 0 0 1 .468-.2c.189 0 .349.067.48.2.13.133.195.296.195.49a.684.684 0 0 1-.196.477.63.63 0 0 1-.479.211Zm1.743-1.778a.64.64 0 0 1-.468-.211.664.664 0 0 1 0-.966.657.657 0 0 1 .947 0c.13.133.196.296.196.489a.682.682 0 0 1-.196.477.628.628 0 0 1-.479.211Zm-7.841 1.333a.435.435 0 0 1-.317-.144.452.452 0 0 1-.14-.322v-1.09h-1.068a.434.434 0 0 1-.316-.144.45.45 0 0 1-.142-.322c0-.12.047-.23.142-.334a.42.42 0 0 1 .316-.155h1.067v-1.067a.49.49 0 0 1 .141-.333.42.42 0 0 1 .317-.156c.116 0 .225.052.326.155a.472.472 0 0 1 .152.334v1.067h1.046c.116 0 .225.051.327.155a.47.47 0 0 1 .152.333c0 .119-.05.226-.152.323a.468.468 0 0 1-.327.144h-1.046V16c0 .119-.05.226-.152.322a.47.47 0 0 1-.326.144Z" fill="#86E543"/></g></g><defs><filter id="b" x="1" y="7" width="30" height="26" filterUnits="userSpaceOnUse" color-interpolation-filters="sRGB"><feFlood flood-opacity="0" result="BackgroundImageFix"/><feBlend in="SourceGraphic" in2="BackgroundImageFix" result="shape"/><feGaussianBlur stdDeviation="4.5" result="effect1_foregroundBlur_13255_2066"/></filter><filter id="c" x="6.667" y="9.333" width="18.666" height="17.778" filterUnits="userSpaceOnUse" color-interpolation-filters="sRGB"><feFlood flood-opacity="0" result="BackgroundImageFix"/><feBlend in="SourceGraphic" in2="BackgroundImageFix" result="shape"/><feColorMatrix in="SourceAlpha" values="0 0 0 0 0 0 0 0 0 0 0 0 0 0 0 0 0 0 127 0" result="hardAlpha"/><feOffset dy="4"/><feGaussianBlur stdDeviation="2"/><feComposite in2="hardAlpha" operator="arithmetic" k2="-1" k3="1"/><feColorMatrix values="0 0 0 0 0.0666667 0 0 0 0 0.658824 0 0 0 0 0.101961 0 0 0 0.2 0"/><feBlend in2="shape" result="effect1_innerShadow_13255_2066"/><feColorMatrix in="SourceAlpha" values="0 0 0 0 0 0 0 0 0 0 0 0 0 0 0 0 0 0 127 0" result="hardAlpha"/><feOffset dy="4"/><feGaussianBlur stdDeviation="25"/><feComposite in2="hardAlpha" operator="arithmetic" k2="-1" k3="1"/><feColorMatrix values="0 0 0 0 0.52549 0 0 0 0 0.898039 0 0 0 0 0.262745 0 0 0 0.5 0"/><feBlend in2="effect1_innerShadow_13255_2066" result="effect2_innerShadow_13255_2066"/><feColorMatrix in="SourceAlpha" values="0 0 0 0 0 0 0 0 0 0 0 0 0 0 0 0 0 0 127 0" result="hardAlpha"/><feOffset dy="4"/><feGaussianBlur stdDeviation="5"/><feComposite in2="hardAlpha" operator="arithmetic" k2="-1" k3="1"/><feColorMatrix values="0 0 0 0 0.52549 0 0 0 0 0.898039 0 0 0 0 0.262745 0 0 0 0.2 0"/><feBlend in2="effect2_innerShadow_13255_2066" result="effect3_innerShadow_13255_2066"/></filter><clipPath id="a"><path fill="#fff" d="M0 0h32v32H0z"/></clipPath></defs></svg>