<svg aria-hidden="true" style="width:0;height:0;position:absolute;overflow:hidden" xmlns="http://www.w3.org/2000/svg"><defs><symbol id="icon-facebook" viewBox="0 0 33 32"><path fill="#fff" style="fill:var(--color1,#fff)" d="M17.149 0c8.837 0 16 7.163 16 16s-7.163 16-16 16-16-7.163-16-16 7.163-16 16-16z"/><path fill="#001414" style="fill:var(--color2,#001414)" d="M21.149 13.181h-2.952V11.52c0-.624.482-.769.821-.769h2.083V8.009l-2.869-.01c-3.184 0-3.909 2.045-3.909 3.353v1.828h-1.842v2.825h1.842v7.994h3.873v-7.994h2.614l.338-2.825z"/></symbol><symbol id="icon-finger-down" viewBox="0 0 32 32"><path fill="none" stroke="#86e543" style="stroke:var(--color3,#86e543)" stroke-linejoin="round" stroke-linecap="round" stroke-width="2.667" d="M2.787 17.889a1.34 1.34 0 0 0 .348 1.014 1.33 1.33 0 0 0 .982.43h2.55a1.335 1.335 0 0 0 1.334-1.334V4.666a1.334 1.334 0 0 0-1.334-1.334h-1.44a1.336 1.336 0 0 0-1.329 1.222L2.787 17.887h-.001zM12 17.75c0 .557.347 1.056.85 1.293 1.099.519 2.972 1.561 3.817 2.969 1.089 1.816 1.294 5.097 1.327 5.848.005.105.002.211.016.315.181 1.302 2.693-.219 3.657-1.827.523-.872.59-2.018.535-2.913-.059-.957-.34-1.882-.615-2.801L21 18.676h7.238a1.319 1.319 0 0 0 1.063-.528 1.332 1.332 0 0 0 .22-1.167l-3.58-12.677a1.33 1.33 0 0 0-1.284-.971H13.333A1.33 1.33 0 0 0 12 4.667V17.75z"/></symbol><symbol id="icon-finger-top" viewBox="0 0 32 32"><path stroke-linejoin="round" stroke-linecap="round" stroke-width="2.667" d="M2.787 14.111a1.34 1.34 0 0 1 .348-1.014 1.33 1.33 0 0 1 .982-.43h2.55a1.335 1.335 0 0 1 1.334 1.334v13.333a1.334 1.334 0 0 1-1.334 1.334h-1.44a1.336 1.336 0 0 1-1.329-1.222L2.787 14.113h-.001zM12 14.25c0-.557.347-1.056.85-1.293 1.099-.519 2.972-1.561 3.817-2.969 1.089-1.816 1.294-5.097 1.327-5.848.005-.105.002-.211.016-.315.181-1.302 2.693.219 3.657 1.827.523.872.59 2.018.535 2.913-.059.957-.34 1.882-.615 2.801L21 13.324h7.238a1.319 1.319 0 0 1 1.063.528 1.332 1.332 0 0 1 .22 1.167l-3.58 12.677a1.33 1.33 0 0 1-1.284.971H13.333A1.33 1.33 0 0 1 12 27.333V14.25z"/></symbol><symbol id="icon-Instagram" viewBox="0 0 33 32"><path fill="#fff" style="fill:var(--color1,#fff)" d="M17.149 0c8.837 0 16 7.163 16 16s-7.163 16-16 16-16-7.163-16-16 7.163-16 16-16z"/><path fill="#001414" style="fill:var(--color2,#001414)" d="M25.149 9a1 1 0 1 1-2 0 1 1 0 0 1 2 0zM17.149 23a7 7 0 1 1 0-14 7 7 0 0 1 0 14zm.001-2.333a4.667 4.667 0 1 0 0-9.334 4.667 4.667 0 0 0 0 9.334z"/></symbol><symbol id="icon-sandwich" viewBox="0 0 48 32"><path fill="#86e543" style="fill:var(--color3,#86e543)" d="M45.467 13.333H2.534c-1.399 0-2.533.681-2.533 1.52v.16c0 .839 1.134 1.52 2.533 1.52h42.933c1.399 0 2.533-.681 2.533-1.52v-.16c0-.839-1.134-1.52-2.533-1.52zM45.467 26.667H2.534c-1.399 0-2.533.681-2.533 1.52v.16c0 .839 1.134 1.52 2.533 1.52h42.933c1.399 0 2.533-.681 2.533-1.52v-.16c0-.839-1.134-1.52-2.533-1.52zM45.467 0H2.534C1.135 0 .001.681.001 1.52v.16c0 .839 1.134 1.52 2.533 1.52h42.933C46.866 3.2 48 2.519 48 1.68v-.16C48 .681 46.866 0 45.467 0z"/></symbol><symbol id="icon-youtube" viewBox="0 0 33 32"><path fill="#fff" style="fill:var(--color1,#fff)" d="M17.149 0c8.837 0 16 7.163 16 16s-7.163 16-16 16-16-7.163-16-16 7.163-16 16-16z"/><path fill="#001414" style="fill:var(--color2,#001414)" d="M23.401 10.986c.688.176 1.231.694 1.415 1.351.334 1.192.334 3.679.334 3.679s0 2.487-.334 3.679c-.184.658-.726 1.154-1.415 1.33-1.248.319-6.251.319-6.251.319s-5.003 0-6.251-.319c-.688-.176-1.231-.672-1.415-1.33-.334-1.192-.334-3.679-.334-3.679s0-2.487.334-3.679a1.958 1.958 0 0 1 1.415-1.351c1.248-.319 6.251-.319 6.251-.319s5.003 0 6.251.319zm-7.888 2.772v4.516l4.182-2.258-4.182-2.258z"/></symbol><symbol id="icon-Main-menu-exit" viewBox="0 0 32 32"><path fill="none" stroke="#86e543" style="stroke:var(--color1,#86e543)" stroke-linecap="round" stroke-width="3.556" d="M29.63 30.222 2.371 1.778m27.259 0L2.371 30.222"/></symbol><symbol id="icon-Take-order-modal-exit" viewBox="0 0 32 32"><path fill="none" stroke="#86e543" style="stroke:var(--color1,#86e543)" stroke-linejoin="round" stroke-linecap="round" stroke-width="1.2" d="m20.5 11.5-9 9m0-9 9 9M16 28.5c6.904 0 12.5-5.596 12.5-12.5S22.904 3.5 16 3.5 3.5 9.096 3.5 16 9.096 28.5 16 28.5z"/></symbol><symbol id="icon-mob-header-menu" viewBox="0 0 48 32"><path d="M45.467 13.333H2.534c-1.399 0-2.533.681-2.533 1.52v.16c0 .839 1.134 1.52 2.533 1.52h42.933c1.399 0 2.533-.681 2.533-1.52v-.16c0-.839-1.134-1.52-2.533-1.52zm0 13.334H2.534c-1.399 0-2.533.681-2.533 1.52v.16c0 .839 1.134 1.52 2.533 1.52h42.933c1.399 0 2.533-.681 2.533-1.52v-.16c0-.839-1.134-1.52-2.533-1.52zm0-26.667H2.534C1.135 0 .001.681.001 1.52v.16c0 .839 1.134 1.52 2.533 1.52h42.933C46.866 3.2 48 2.519 48 1.68v-.16C48 .681 46.866 0 45.467 0z"/></symbol><symbol id="icon-down" viewBox="0 0 45 32"><path fill="#fff" style="fill:var(--color1,#fff)" d="M24.899 28.874c-.591.735-1.491 1.201-2.499 1.201s-1.908-.466-2.494-1.195l-.005-.006L1.613 5.997A3.2 3.2 0 0 1 4.113.8h36.576a3.2 3.2 0 0 1 2.491 5.203l.005-.006-18.282 22.877z"/></symbol><symbol id="icon-up" viewBox="0 0 45 32"><path fill="#fff" style="fill:var(--color1,#fff)" d="M24.899 3.126a3.198 3.198 0 0 0-4.993-.007l-.005.006L1.613 26.002a3.2 3.2 0 0 0 2.5 5.197h36.576a3.2 3.2 0 0 0 2.491-5.203l.005.006L24.903 3.125z"/></symbol></defs></svg>