<svg aria-hidden="true" style="position: absolute; width: 0; height: 0; overflow: hidden;" version="1.1" xmlns="http://www.w3.org/2000/svg" xmlns:xlink="http://www.w3.org/1999/xlink">
<defs>
<symbol id="icon-facebook" viewBox="0 0 33 32">
<path fill="#fff" style="fill: var(--color1, #fff)" d="M17.149 0c8.837 0 16 7.163 16 16s-7.163 16-16 16c-8.837 0-16-7.163-16-16s7.163-16 16-16z"></path>
<path fill="#001414" style="fill: var(--color2, #001414)" d="M21.149 13.181h-2.952v-1.661c0-0.624 0.482-0.769 0.821-0.769s2.083 0 2.083 0v-2.742l-2.869-0.010c-3.184 0-3.909 2.045-3.909 3.353v1.828h-1.842v2.825h1.842c0 3.626 0 7.994 0 7.994h3.873c0 0 0-4.411 0-7.994h2.614l0.338-2.825z"></path>
</symbol>
<symbol id="icon-finger-down" viewBox="0 0 32 32">
<path fill="none" stroke="#86e543" style="stroke: var(--color3, #86e543)" stroke-linejoin="round" stroke-linecap="round" stroke-miterlimit="4" stroke-width="2.6667" d="M2.787 17.889c-0.015 0.184 0.008 0.369 0.068 0.544s0.155 0.335 0.28 0.47c0.125 0.136 0.277 0.244 0.446 0.318s0.352 0.112 0.536 0.112h2.55c0.354 0 0.693-0.14 0.943-0.391s0.391-0.589 0.391-0.943v-13.333c0-0.354-0.141-0.693-0.391-0.943s-0.589-0.391-0.943-0.391h-1.44c-0.334 0-0.657 0.126-0.903 0.352s-0.398 0.537-0.426 0.87l-1.111 13.333h-0.001zM12 17.75c0 0.557 0.347 1.056 0.85 1.293 1.099 0.519 2.972 1.561 3.817 2.969 1.089 1.816 1.294 5.097 1.327 5.848 0.005 0.105 0.002 0.211 0.016 0.315 0.181 1.302 2.693-0.219 3.657-1.827 0.523-0.872 0.59-2.018 0.535-2.913-0.059-0.957-0.34-1.882-0.615-2.801l-0.587-1.958h7.238c0.206 0 0.409-0.048 0.594-0.139s0.345-0.225 0.469-0.389 0.209-0.355 0.247-0.558c0.038-0.202 0.029-0.411-0.027-0.609l-3.58-12.677c-0.079-0.28-0.247-0.526-0.479-0.701s-0.514-0.27-0.805-0.27h-11.324c-0.354 0-0.693 0.14-0.943 0.391s-0.39 0.589-0.39 0.943v13.083z"></path>
</symbol>
<symbol id="icon-finger-top" viewBox="0 0 32 32">
<path stroke-linejoin="round" stroke-linecap="round" stroke-miterlimit="4" stroke-width="2.6667" d="M2.787 14.111c-0.015-0.184 0.008-0.369 0.068-0.544s0.155-0.335 0.28-0.47c0.125-0.136 0.277-0.244 0.446-0.318s0.352-0.112 0.536-0.112h2.55c0.354 0 0.693 0.14 0.943 0.391s0.391 0.589 0.391 0.943v13.333c0 0.354-0.141 0.693-0.391 0.943s-0.589 0.391-0.943 0.391h-1.44c-0.334 0-0.657-0.126-0.903-0.352s-0.398-0.537-0.426-0.87l-1.111-13.333h-0.001zM12 14.25c0-0.557 0.347-1.056 0.85-1.293 1.099-0.519 2.972-1.561 3.817-2.969 1.089-1.816 1.294-5.097 1.327-5.848 0.005-0.105 0.002-0.211 0.016-0.315 0.181-1.302 2.693 0.219 3.657 1.827 0.523 0.872 0.59 2.018 0.535 2.913-0.059 0.957-0.34 1.882-0.615 2.801l-0.587 1.958h7.238c0.206 0 0.409 0.048 0.594 0.139s0.345 0.225 0.469 0.389 0.209 0.355 0.247 0.558c0.038 0.202 0.029 0.411-0.027 0.609l-3.58 12.677c-0.079 0.28-0.247 0.526-0.479 0.701s-0.514 0.27-0.805 0.27h-11.324c-0.354 0-0.693-0.14-0.943-0.391s-0.39-0.589-0.39-0.943v-13.083z"></path>
</symbol>
<symbol id="icon-Instagram" viewBox="0 0 33 32">
<path fill="#fff" style="fill: var(--color1, #fff)" d="M17.149 0c8.837 0 16 7.163 16 16s-7.163 16-16 16c-8.837 0-16-7.163-16-16s7.163-16 16-16z"></path>
<path fill="#001414" style="fill: var(--color2, #001414)" d="M25.149 9c0 0.552-0.448 1-1 1s-1-0.448-1-1c0-0.552 0.448-1 1-1s1 0.448 1 1z"></path>
<path fill="#001414" style="fill: var(--color2, #001414)" d="M17.149 23c-3.866 0-7-3.134-7-7s3.134-7 7-7c3.866 0 7 3.134 7 7s-3.134 7-7 7zM17.15 20.667c2.577 0 4.667-2.089 4.667-4.667s-2.089-4.667-4.667-4.667c-2.577 0-4.667 2.089-4.667 4.667s2.089 4.667 4.667 4.667z"></path>
</symbol>
<symbol id="icon-sandwich" viewBox="0 0 48 32">
<path fill="#86e543" style="fill: var(--color3, #86e543)" d="M45.467 13.333h-42.933c-1.399 0-2.533 0.681-2.533 1.52v0.16c0 0.839 1.134 1.52 2.533 1.52h42.933c1.399 0 2.533-0.681 2.533-1.52v-0.16c0-0.839-1.134-1.52-2.533-1.52z"></path>
<path fill="#86e543" style="fill: var(--color3, #86e543)" d="M45.467 26.667h-42.933c-1.399 0-2.533 0.681-2.533 1.52v0.16c0 0.839 1.134 1.52 2.533 1.52h42.933c1.399 0 2.533-0.681 2.533-1.52v-0.16c0-0.839-1.134-1.52-2.533-1.52z"></path>
<path fill="#86e543" style="fill: var(--color3, #86e543)" d="M45.467 0h-42.933c-1.399 0-2.533 0.681-2.533 1.52v0.16c0 0.839 1.134 1.52 2.533 1.52h42.933c1.399 0 2.533-0.681 2.533-1.52v-0.16c0-0.839-1.134-1.52-2.533-1.52z"></path>
</symbol>
<symbol id="icon-youtube" viewBox="0 0 33 32">
<path fill="#fff" style="fill: var(--color1, #fff)" d="M17.149 0c8.837 0 16 7.163 16 16s-7.163 16-16 16c-8.837 0-16-7.163-16-16s7.163-16 16-16z"></path>
<path fill="#001414" style="fill: var(--color2, #001414)" d="M23.401 10.986c0.688 0.176 1.231 0.694 1.415 1.351 0.334 1.192 0.334 3.679 0.334 3.679s0 2.487-0.334 3.679c-0.184 0.658-0.726 1.154-1.415 1.33-1.248 0.319-6.251 0.319-6.251 0.319s-5.003 0-6.251-0.319c-0.688-0.176-1.231-0.672-1.415-1.33-0.334-1.192-0.334-3.679-0.334-3.679s0-2.487 0.334-3.679c0.184-0.658 0.726-1.176 1.415-1.351 1.248-0.319 6.251-0.319 6.251-0.319s5.003 0 6.251 0.319zM15.513 13.758v4.516l4.182-2.258-4.182-2.258z"></path>
</symbol>
<symbol id="icon-Main-menu-exit" viewBox="0 0 32 32">
<path fill="none" stroke="#86e543" style="stroke: var(--color1, #86e543)" stroke-linejoin="miter" stroke-linecap="round" stroke-miterlimit="4" stroke-width="3.5556" d="M29.63 30.222l-27.259-28.444M29.63 1.778l-27.259 28.444"></path>
</symbol>
<symbol id="icon-Take-order-modal-exit" viewBox="0 0 32 32">
<path fill="none" stroke="#86e543" style="stroke: var(--color1, #86e543)" stroke-linejoin="round" stroke-linecap="round" stroke-miterlimit="4" stroke-width="1.2" d="M20.5 11.5l-9 9M11.5 11.5l9 9"></path>
<path fill="none" stroke="#86e543" style="stroke: var(--color1, #86e543)" stroke-linejoin="round" stroke-linecap="round" stroke-miterlimit="4" stroke-width="1.2" d="M16 28.5c6.904 0 12.5-5.596 12.5-12.5s-5.596-12.5-12.5-12.5c-6.904 0-12.5 5.596-12.5 12.5s5.596 12.5 12.5 12.5z"></path>
</symbol>

<symbol id="icon-mob-header-menu" viewBox="0 0 48 32">
<path   d="M45.467 13.333h-42.933c-1.399 0-2.533 0.681-2.533 1.52v0.16c0 0.839 1.134 1.52 2.533 1.52h42.933c1.399 0 2.533-0.681 2.533-1.52v-0.16c0-0.839-1.134-1.52-2.533-1.52zM45.467 26.667h-42.933c-1.399 0-2.533 0.681-2.533 1.52v0.16c0 0.839 1.134 1.52 2.533 1.52h42.933c1.399 0 2.533-0.681 2.533-1.52v-0.16c0-0.839-1.134-1.52-2.533-1.52zM45.467 0h-42.933c-1.399 0-2.533 0.681-2.533 1.52v0.16c0 0.839 1.134 1.52 2.533 1.52h42.933c1.399 0 2.533-0.681 2.533-1.52v-0.16c0-0.839-1.134-1.52-2.533-1.52z"></path>
</symbol>
</defs>
</svg>
