<svg width="32" height="32" fill="none" xmlns="http://www.w3.org/2000/svg">
  <g clip-path="url(#a)">
    <path d="M8.34 22.256c-.55 0-.982-.199-1.297-.596-.315-.398-.432-.895-.351-1.492l1.115-7.927c.113-.812.472-1.5 1.079-2.063.605-.563 1.304-.845 2.096-.845h10.036c.792 0 1.491.282 2.097.845a3.493 3.493 0 0 1 1.103 2.063l1.09 7.927c.082.597-.035 1.094-.35 1.492-.316.397-.748.596-1.297.596-.291 0-.546-.05-.764-.15a1.878 1.878 0 0 1-.57-.396l-2.497-2.56h-7.66l-2.497 2.56a1.878 1.878 0 0 1-.57.397c-.218.1-.472.15-.763.15ZM21.09 16.69a.845.845 0 0 0 .606-.261.853.853 0 0 0 .267-.634.853.853 0 0 0-.267-.633.844.844 0 0 0-1.224 0 .872.872 0 0 0-.255.633c0 .249.085.46.255.634a.83.83 0 0 0 .618.261Zm-2.012-3.106a.87.87 0 0 0 .63-.261.853.853 0 0 0 .267-.634.855.855 0 0 0-.267-.634.87.87 0 0 0-.63-.26.844.844 0 0 0-.606.26.855.855 0 0 0-.267.634c0 .249.09.46.267.634.178.174.38.26.606.26Zm-7.176 2.982h1.043v-1.79h1.77v-1.068h-1.77v-1.79h-1.043v1.79h-1.745v1.069h1.745v1.79Z" fill="#86E543"/>
    <path d="M31.5 16c0 8.56-6.94 15.5-15.5 15.5C7.44 31.5.5 24.56.5 16 .5 7.44 7.44.5 16 .5 24.56.5 31.5 7.44 31.5 16Z" stroke="#86E543"/>
  </g>
  <defs>
    <clipPath id="a">
      <path fill="#fff" d="M0 0h32v32H0z"/>
    </clipPath>
  </defs>
</svg>
